{
  "asset": {
    "generator": "Khronos glTF Blender I/O v5.2.39",
    "version": "2.0"
  },
  "scene": 0,
  "scenes": [
    {
      "name": "Scene",
      "nodes": [
        0,
        1,
        2,
        3,
        4,
        5,
        6,
        7,
        8,
        9,
        10,
        11,
        12,
        13,
        14,
        15
      ]
    }
  ],
  "nodes": [
    {
      "extras": {
        "vordar_uv_final": true,
        "vordar_arc_axis": "x",
        "vordar_arc_u": 0.0,
        "vordar_arc_z": 3.5999999999999996,
        "vordar_r_out": 1.6000000000000003,
        "vordar_r_in": 0.9700000000000003
      },
      "mesh": 0,
      "name": "gate_arch_arch_wedge0"
    },
    {
      "extras": {
        "vordar_uv_final": true,
        "vordar_arc_axis": "x",
        "vordar_arc_u": 0.0,
        "vordar_arc_z": 3.5999999999999996,
        "vordar_r_out": 1.6000000000000003,
        "vordar_r_in": 0.9700000000000003
      },
      "mesh": 1,
      "name": "gate_arch_arch_wedge1"
    },
    {
      "extras": {
        "vordar_uv_final": true,
        "vordar_arc_axis": "x",
        "vordar_arc_u": 0.0,
        "vordar_arc_z": 3.5999999999999996,
        "vordar_r_out": 1.6000000000000003,
        "vordar_r_in": 0.9700000000000003
      },
      "mesh": 2,
      "name": "gate_arch_arch_wedge2"
    },
    {
      "extras": {
        "vordar_uv_final": true,
        "vordar_arc_axis": "x",
        "vordar_arc_u": 0.0,
        "vordar_arc_z": 3.5999999999999996,
        "vordar_r_out": 1.6000000000000003,
        "vordar_r_in": 0.9700000000000003
      },
      "mesh": 3,
      "name": "gate_arch_arch_wedge3"
    },
    {
      "extras": {
        "vordar_uv_final": true,
        "vordar_arc_axis": "x",
        "vordar_arc_u": 0.0,
        "vordar_arc_z": 3.5999999999999996,
        "vordar_r_out": 1.6000000000000003,
        "vordar_r_in": 0.9700000000000003
      },
      "mesh": 4,
      "name": "gate_arch_arch_wedge4"
    },
    {
      "extras": {
        "vordar_uv_final": true,
        "vordar_arc_axis": "x",
        "vordar_arc_u": 0.0,
        "vordar_arc_z": 3.5999999999999996,
        "vordar_r_out": 1.6000000000000003,
        "vordar_r_in": 0.9700000000000003
      },
      "mesh": 5,
      "name": "gate_arch_arch_wedge5"
    },
    {
      "extras": {
        "vordar_uv_final": true,
        "vordar_arc_axis": "x",
        "vordar_arc_u": 0.0,
        "vordar_arc_z": 3.5999999999999996,
        "vordar_r_out": 1.6000000000000003,
        "vordar_r_in": 0.9700000000000003
      },
      "mesh": 6,
      "name": "gate_arch_arch_wedge6"
    },
    {
      "extras": {
        "vordar_uv_final": true,
        "vordar_arc_axis": "x",
        "vordar_arc_u": 0.0,
        "vordar_arc_z": 3.5999999999999996,
        "vordar_r_out": 1.6000000000000003,
        "vordar_r_in": 0.9700000000000003
      },
      "mesh": 7,
      "name": "gate_arch_arch_wedge7"
    },
    {
      "extras": {
        "vordar_uv_final": true,
        "vordar_arc_axis": "x",
        "vordar_arc_u": 0.0,
        "vordar_arc_z": 3.5999999999999996,
        "vordar_r_out": 1.6000000000000003,
        "vordar_r_in": 0.9700000000000003
      },
      "mesh": 8,
      "name": "gate_arch_arch_wedge8"
    },
    {
      "extras": {
        "vordar_uv_final": true,
        "vordar_arc_axis": "x",
        "vordar_arc_u": 0.0,
        "vordar_arc_z": 3.5999999999999996,
        "vordar_r_out": 1.6000000000000003,
        "vordar_r_in": 0.9700000000000003
      },
      "mesh": 9,
      "name": "gate_arch_arch_wedge9"
    },
    {
      "extras": {
        "vordar_uv_final": true,
        "vordar_arc_axis": "x",
        "vordar_arc_u": 0.0,
        "vordar_arc_z": 3.5999999999999996,
        "vordar_r_out": 1.6000000000000003,
        "vordar_r_in": 0.9700000000000003
      },
      "mesh": 10,
      "name": "gate_arch_arch_wedge10"
    },
    {
      "extras": {
        "vordar_uv_final": true,
        "vordar_arc_axis": "x",
        "vordar_arc_u": 0.0,
        "vordar_arc_z": 3.5999999999999996,
        "vordar_r_out": 1.6000000000000003,
        "vordar_r_in": 0.9700000000000003
      },
      "mesh": 11,
      "name": "gate_arch_arch_wedge11"
    },
    {
      "mesh": 12,
      "name": "gate_arch_coping"
    },
    {
      "mesh": 13,
      "name": "gate_arch_head"
    },
    {
      "mesh": 14,
      "name": "gate_arch_jamb_1"
    },
    {
      "mesh": 15,
      "name": "gate_arch_jamb_-1"
    }
  ],
  "materials": [
    {
      "doubleSided": true,
      "extras": {
        "vordar_detail": true
      },
      "name": "limestone_dressed",
      "normalTexture": {
        "index": 0
      },
      "pbrMetallicRoughness": {
        "baseColorTexture": {
          "index": 1
        },
        "metallicFactor": 0,
        "metallicRoughnessTexture": {
          "index": 2
        }
      }
    }
  ],
  "meshes": [
    {
      "name": "gate_arch_arch_wedge0",
      "primitives": [
        {
          "attributes": {
            "POSITION": 0,
            "NORMAL": 1,
            "TEXCOORD_0": 2
          },
          "indices": 3,
          "material": 0
        }
      ]
    },
    {
      "name": "gate_arch_arch_wedge1",
      "primitives": [
        {
          "attributes": {
            "POSITION": 4,
            "NORMAL": 5,
            "TEXCOORD_0": 6
          },
          "indices": 7,
          "material": 0
        }
      ]
    },
    {
      "name": "gate_arch_arch_wedge2",
      "primitives": [
        {
          "attributes": {
            "POSITION": 8,
            "NORMAL": 9,
            "TEXCOORD_0": 10
          },
          "indices": 7,
          "material": 0
        }
      ]
    },
    {
      "name": "gate_arch_arch_wedge3",
      "primitives": [
        {
          "attributes": {
            "POSITION": 11,
            "NORMAL": 12,
            "TEXCOORD_0": 13
          },
          "indices": 14,
          "material": 0
        }
      ]
    },
    {
      "name": "gate_arch_arch_wedge4",
      "primitives": [
        {
          "attributes": {
            "POSITION": 15,
            "NORMAL": 16,
            "TEXCOORD_0": 17
          },
          "indices": 14,
          "material": 0
        }
      ]
    },
    {
      "name": "gate_arch_arch_wedge5",
      "primitives": [
        {
          "attributes": {
            "POSITION": 18,
            "NORMAL": 19,
            "TEXCOORD_0": 20
          },
          "indices": 14,
          "material": 0
        }
      ]
    },
    {
      "name": "gate_arch_arch_wedge6",
      "primitives": [
        {
          "attributes": {
            "POSITION": 21,
            "NORMAL": 22,
            "TEXCOORD_0": 23
          },
          "indices": 24,
          "material": 0
        }
      ]
    },
    {
      "name": "gate_arch_arch_wedge7",
      "primitives": [
        {
          "attributes": {
            "POSITION": 25,
            "NORMAL": 26,
            "TEXCOORD_0": 27
          },
          "indices": 24,
          "material": 0
        }
      ]
    },
    {
      "name": "gate_arch_arch_wedge8",
      "primitives": [
        {
          "attributes": {
            "POSITION": 28,
            "NORMAL": 29,
            "TEXCOORD_0": 30
          },
          "indices": 24,
          "material": 0
        }
      ]
    },
    {
      "name": "gate_arch_arch_wedge9",
      "primitives": [
        {
          "attributes": {
            "POSITION": 31,
            "NORMAL": 32,
            "TEXCOORD_0": 33
          },
          "indices": 34,
          "material": 0
        }
      ]
    },
    {
      "name": "gate_arch_arch_wedge10",
      "primitives": [
        {
          "attributes": {
            "POSITION": 35,
            "NORMAL": 36,
            "TEXCOORD_0": 37
          },
          "indices": 34,
          "material": 0
        }
      ]
    },
    {
      "name": "gate_arch_arch_wedge11",
      "primitives": [
        {
          "attributes": {
            "POSITION": 38,
            "NORMAL": 39,
            "TEXCOORD_0": 40
          },
          "indices": 34,
          "material": 0
        }
      ]
    },
    {
      "name": "gate_arch_coping",
      "primitives": [
        {
          "attributes": {
            "POSITION": 41,
            "NORMAL": 42,
            "TEXCOORD_0": 43
          },
          "indices": 44,
          "material": 0
        }
      ]
    },
    {
      "name": "gate_arch_head",
      "primitives": [
        {
          "attributes": {
            "POSITION": 45,
            "NORMAL": 46,
            "TEXCOORD_0": 47
          },
          "indices": 48,
          "material": 0
        }
      ]
    },
    {
      "name": "gate_arch_jamb_1",
      "primitives": [
        {
          "attributes": {
            "POSITION": 49,
            "NORMAL": 50,
            "TEXCOORD_0": 51
          },
          "indices": 44,
          "material": 0
        }
      ]
    },
    {
      "name": "gate_arch_jamb_-1",
      "primitives": [
        {
          "attributes": {
            "POSITION": 52,
            "NORMAL": 53,
            "TEXCOORD_0": 54
          },
          "indices": 44,
          "material": 0
        }
      ]
    }
  ],
  "textures": [
    {
      "sampler": 0,
      "source": 0
    },
    {
      "sampler": 0,
      "source": 1
    },
    {
      "sampler": 0,
      "source": 2
    }
  ],
  "images": [
    {
      "mimeType": "image/png",
      "name": "limestone_dressed_nor_gl",
      "uri": "../../townkit_textures/limestone_dressed_nor_gl.png"
    },
    {
      "mimeType": "image/png",
      "name": "limestone_dressed_diff",
      "uri": "../../townkit_textures/limestone_dressed_diff.png"
    },
    {
      "mimeType": "image/png",
      "name": "limestone_dressed_rough",
      "uri": "../../townkit_textures/limestone_dressed_rough.png"
    }
  ],
  "accessors": [
    {
      "bufferView": 0,
      "componentType": 5126,
      "count": 24,
      "max": [
        -0.9369480609893799,
        4.014110565185547,
        0.44999998807907104
      ],
      "min": [
        -1.600000023841858,
        3.5999999046325684,
        -0.44999998807907104
      ],
      "type": "VEC3"
    },
    {
      "bufferView": 1,
      "componentType": 5126,
      "count": 24,
      "type": "VEC3"
    },
    {
      "bufferView": 2,
      "componentType": 5126,
      "count": 24,
      "type": "VEC2"
    },
    {
      "bufferView": 3,
      "componentType": 5123,
      "count": 36,
      "type": "SCALAR"
    },
    {
      "bufferView": 4,
      "componentType": 5126,
      "count": 24,
      "max": [
        -0.8400446176528931,
        4.400000095367432,
        0.44999998807907104
      ],
      "min": [
        -1.5454813241958618,
        3.8510544300079346,
        -0.44999998807907104
      ],
      "type": "VEC3"
    },
    {
      "bufferView": 5,
      "componentType": 5126,
      "count": 24,
      "type": "VEC3"
    },
    {
      "bufferView": 6,
      "componentType": 5126,
      "count": 24,
      "type": "VEC2"
    },
    {
      "bufferView": 7,
      "componentType": 5123,
      "count": 36,
      "type": "SCALAR"
    },
    {
      "bufferView": 8,
      "componentType": 5126,
      "count": 24,
      "max": [
        -0.6858935952186584,
        4.73137092590332,
        0.44999998807907104
      ],
      "min": [
        -1.3856406211853027,
        4.085000038146973,
        -0.44999998807907104
      ],
      "type": "VEC3"
    },
    {
      "bufferView": 9,
      "componentType": 5126,
      "count": 24,
      "type": "VEC3"
    },
    {
      "bufferView": 10,
      "componentType": 5126,
      "count": 24,
      "type": "VEC2"
    },
    {
      "bufferView": 11,
      "componentType": 5126,
      "count": 24,
      "max": [
        -0.48500001430511475,
        4.985640525817871,
        0.44999998807907104
      ],
      "min": [
        -1.1313709020614624,
        4.285893440246582,
        -0.44999998807907104
      ],
      "type": "VEC3"
    },
    {
      "bufferView": 12,
      "componentType": 5126,
      "count": 24,
      "type": "VEC3"
    },
    {
      "bufferView": 13,
      "componentType": 5126,
      "count": 24,
      "type": "VEC2"
    },
    {
      "bufferView": 14,
      "componentType": 5123,
      "count": 36,
      "type": "SCALAR"
    },
    {
      "bufferView": 15,
      "componentType": 5126,
      "count": 24,
      "max": [
        -0.25105446577072144,
        5.145481109619141,
        0.44999998807907104
      ],
      "min": [
        -0.800000011920929,
        4.44004487991333,
        -0.44999998807907104
      ],
      "type": "VEC3"
    },
    {
      "bufferView": 16,
      "componentType": 5126,
      "count": 24,
      "type": "VEC3"
    },
    {
      "bufferView": 17,
      "componentType": 5126,
      "count": 24,
      "type": "VEC2"
    },
    {
      "bufferView": 18,
      "componentType": 5126,
      "count": 24,
      "max": [
        0,
        5.199999809265137,
        0.44999998807907104
      ],
      "min": [
        -0.4141104817390442,
        4.536948204040527,
        -0.44999998807907104
      ],
      "type": "VEC3"
    },
    {
      "bufferView": 19,
      "componentType": 5126,
      "count": 24,
      "type": "VEC3"
    },
    {
      "bufferView": 20,
      "componentType": 5126,
      "count": 24,
      "type": "VEC2"
    },
    {
      "bufferView": 21,
      "componentType": 5126,
      "count": 24,
      "max": [
        0.4141104817390442,
        5.199999809265137,
        0.44999998807907104
      ],
      "min": [
        0,
        4.536948204040527,
        -0.44999998807907104
      ],
      "type": "VEC3"
    },
    {
      "bufferView": 22,
      "componentType": 5126,
      "count": 24,
      "type": "VEC3"
    },
    {
      "bufferView": 23,
      "componentType": 5126,
      "count": 24,
      "type": "VEC2"
    },
    {
      "bufferView": 24,
      "componentType": 5123,
      "count": 36,
      "type": "SCALAR"
    },
    {
      "bufferView": 25,
      "componentType": 5126,
      "count": 24,
      "max": [
        0.800000011920929,
        5.145481109619141,
        0.44999998807907104
      ],
      "min": [
        0.25105446577072144,
        4.44004487991333,
        -0.44999998807907104
      ],
      "type": "VEC3"
    },
    {
      "bufferView": 26,
      "componentType": 5126,
      "count": 24,
      "type": "VEC3"
    },
    {
      "bufferView": 27,
      "componentType": 5126,
      "count": 24,
      "type": "VEC2"
    },
    {
      "bufferView": 28,
      "componentType": 5126,
      "count": 24,
      "max": [
        1.1313709020614624,
        4.985640525817871,
        0.44999998807907104
      ],
      "min": [
        0.48500001430511475,
        4.285893440246582,
        -0.44999998807907104
      ],
      "type": "VEC3"
    },
    {
      "bufferView": 29,
      "componentType": 5126,
      "count": 24,
      "type": "VEC3"
    },
    {
      "bufferView": 30,
      "componentType": 5126,
      "count": 24,
      "type": "VEC2"
    },
    {
      "bufferView": 31,
      "componentType": 5126,
      "count": 24,
      "max": [
        1.3856406211853027,
        4.73137092590332,
        0.44999998807907104
      ],
      "min": [
        0.6858935952186584,
        4.085000038146973,
        -0.44999998807907104
      ],
      "type": "VEC3"
    },
    {
      "bufferView": 32,
      "componentType": 5126,
      "count": 24,
      "type": "VEC3"
    },
    {
      "bufferView": 33,
      "componentType": 5126,
      "count": 24,
      "type": "VEC2"
    },
    {
      "bufferView": 34,
      "componentType": 5123,
      "count": 36,
      "type": "SCALAR"
    },
    {
      "bufferView": 35,
      "componentType": 5126,
      "count": 24,
      "max": [
        1.5454813241958618,
        4.400000095367432,
        0.44999998807907104
      ],
      "min": [
        0.8400446176528931,
        3.8510544300079346,
        -0.44999998807907104
      ],
      "type": "VEC3"
    },
    {
      "bufferView": 36,
      "componentType": 5126,
      "count": 24,
      "type": "VEC3"
    },
    {
      "bufferView": 37,
      "componentType": 5126,
      "count": 24,
      "type": "VEC2"
    },
    {
      "bufferView": 38,
      "componentType": 5126,
      "count": 24,
      "max": [
        1.600000023841858,
        4.014110565185547,
        0.44999998807907104
      ],
      "min": [
        0.9369480609893799,
        3.5999999046325684,
        -0.44999998807907104
      ],
      "type": "VEC3"
    },
    {
      "bufferView": 39,
      "componentType": 5126,
      "count": 24,
      "type": "VEC3"
    },
    {
      "bufferView": 40,
      "componentType": 5126,
      "count": 24,
      "type": "VEC2"
    },
    {
      "bufferView": 41,
      "componentType": 5126,
      "count": 96,
      "max": [
        3.25,
        5.75,
        0.550000011920929
      ],
      "min": [
        -3.25,
        5.600000381469727,
        -0.550000011920929
      ],
      "type": "VEC3"
    },
    {
      "bufferView": 42,
      "componentType": 5126,
      "count": 96,
      "type": "VEC3"
    },
    {
      "bufferView": 43,
      "componentType": 5126,
      "count": 96,
      "type": "VEC2"
    },
    {
      "bufferView": 44,
      "componentType": 5123,
      "count": 180,
      "type": "SCALAR"
    },
    {
      "bufferView": 45,
      "componentType": 5126,
      "count": 102,
      "max": [
        3.200000047683716,
        5.599999904632568,
        0.44999998807907104
      ],
      "min": [
        -3.200000047683716,
        3.5999999046325684,
        -0.44999998807907104
      ],
      "type": "VEC3"
    },
    {
      "bufferView": 46,
      "componentType": 5126,
      "count": 102,
      "type": "VEC3"
    },
    {
      "bufferView": 47,
      "componentType": 5126,
      "count": 102,
      "type": "VEC2"
    },
    {
      "bufferView": 48,
      "componentType": 5123,
      "count": 192,
      "type": "SCALAR"
    },
    {
      "bufferView": 49,
      "componentType": 5126,
      "count": 96,
      "max": [
        3.200000047683716,
        3.5999999046325684,
        0.44999998807907104
      ],
      "min": [
        1.6000001430511475,
        0,
        -0.44999998807907104
      ],
      "type": "VEC3"
    },
    {
      "bufferView": 50,
      "componentType": 5126,
      "count": 96,
      "type": "VEC3"
    },
    {
      "bufferView": 51,
      "componentType": 5126,
      "count": 96,
      "type": "VEC2"
    },
    {
      "bufferView": 52,
      "componentType": 5126,
      "count": 96,
      "max": [
        -1.6000001430511475,
        3.5999999046325684,
        0.44999998807907104
      ],
      "min": [
        -3.200000047683716,
        0,
        -0.44999998807907104
      ],
      "type": "VEC3"
    },
    {
      "bufferView": 53,
      "componentType": 5126,
      "count": 96,
      "type": "VEC3"
    },
    {
      "bufferView": 54,
      "componentType": 5126,
      "count": 96,
      "type": "VEC2"
    }
  ],
  "bufferViews": [
    {
      "buffer": 0,
      "byteLength": 288,
      "byteOffset": 0,
      "target": 34962
    },
    {
      "buffer": 0,
      "byteLength": 288,
      "byteOffset": 288,
      "target": 34962
    },
    {
      "buffer": 0,
      "byteLength": 192,
      "byteOffset": 576,
      "target": 34962
    },
    {
      "buffer": 0,
      "byteLength": 72,
      "byteOffset": 768,
      "target": 34963
    },
    {
      "buffer": 0,
      "byteLength": 288,
      "byteOffset": 840,
      "target": 34962
    },
    {
      "buffer": 0,
      "byteLength": 288,
      "byteOffset": 1128,
      "target": 34962
    },
    {
      "buffer": 0,
      "byteLength": 192,
      "byteOffset": 1416,
      "target": 34962
    },
    {
      "buffer": 0,
      "byteLength": 72,
      "byteOffset": 1608,
      "target": 34963
    },
    {
      "buffer": 0,
      "byteLength": 288,
      "byteOffset": 1680,
      "target": 34962
    },
    {
      "buffer": 0,
      "byteLength": 288,
      "byteOffset": 1968,
      "target": 34962
    },
    {
      "buffer": 0,
      "byteLength": 192,
      "byteOffset": 2256,
      "target": 34962
    },
    {
      "buffer": 0,
      "byteLength": 288,
      "byteOffset": 2448,
      "target": 34962
    },
    {
      "buffer": 0,
      "byteLength": 288,
      "byteOffset": 2736,
      "target": 34962
    },
    {
      "buffer": 0,
      "byteLength": 192,
      "byteOffset": 3024,
      "target": 34962
    },
    {
      "buffer": 0,
      "byteLength": 72,
      "byteOffset": 3216,
      "target": 34963
    },
    {
      "buffer": 0,
      "byteLength": 288,
      "byteOffset": 3288,
      "target": 34962
    },
    {
      "buffer": 0,
      "byteLength": 288,
      "byteOffset": 3576,
      "target": 34962
    },
    {
      "buffer": 0,
      "byteLength": 192,
      "byteOffset": 3864,
      "target": 34962
    },
    {
      "buffer": 0,
      "byteLength": 288,
      "byteOffset": 4056,
      "target": 34962
    },
    {
      "buffer": 0,
      "byteLength": 288,
      "byteOffset": 4344,
      "target": 34962
    },
    {
      "buffer": 0,
      "byteLength": 192,
      "byteOffset": 4632,
      "target": 34962
    },
    {
      "buffer": 0,
      "byteLength": 288,
      "byteOffset": 4824,
      "target": 34962
    },
    {
      "buffer": 0,
      "byteLength": 288,
      "byteOffset": 5112,
      "target": 34962
    },
    {
      "buffer": 0,
      "byteLength": 192,
      "byteOffset": 5400,
      "target": 34962
    },
    {
      "buffer": 0,
      "byteLength": 72,
      "byteOffset": 5592,
      "target": 34963
    },
    {
      "buffer": 0,
      "byteLength": 288,
      "byteOffset": 5664,
      "target": 34962
    },
    {
      "buffer": 0,
      "byteLength": 288,
      "byteOffset": 5952,
      "target": 34962
    },
    {
      "buffer": 0,
      "byteLength": 192,
      "byteOffset": 6240,
      "target": 34962
    },
    {
      "buffer": 0,
      "byteLength": 288,
      "byteOffset": 6432,
      "target": 34962
    },
    {
      "buffer": 0,
      "byteLength": 288,
      "byteOffset": 6720,
      "target": 34962
    },
    {
      "buffer": 0,
      "byteLength": 192,
      "byteOffset": 7008,
      "target": 34962
    },
    {
      "buffer": 0,
      "byteLength": 288,
      "byteOffset": 7200,
      "target": 34962
    },
    {
      "buffer": 0,
      "byteLength": 288,
      "byteOffset": 7488,
      "target": 34962
    },
    {
      "buffer": 0,
      "byteLength": 192,
      "byteOffset": 7776,
      "target": 34962
    },
    {
      "buffer": 0,
      "byteLength": 72,
      "byteOffset": 7968,
      "target": 34963
    },
    {
      "buffer": 0,
      "byteLength": 288,
      "byteOffset": 8040,
      "target": 34962
    },
    {
      "buffer": 0,
      "byteLength": 288,
      "byteOffset": 8328,
      "target": 34962
    },
    {
      "buffer": 0,
      "byteLength": 192,
      "byteOffset": 8616,
      "target": 34962
    },
    {
      "buffer": 0,
      "byteLength": 288,
      "byteOffset": 8808,
      "target": 34962
    },
    {
      "buffer": 0,
      "byteLength": 288,
      "byteOffset": 9096,
      "target": 34962
    },
    {
      "buffer": 0,
      "byteLength": 192,
      "byteOffset": 9384,
      "target": 34962
    },
    {
      "buffer": 0,
      "byteLength": 1152,
      "byteOffset": 9576,
      "target": 34962
    },
    {
      "buffer": 0,
      "byteLength": 1152,
      "byteOffset": 10728,
      "target": 34962
    },
    {
      "buffer": 0,
      "byteLength": 768,
      "byteOffset": 11880,
      "target": 34962
    },
    {
      "buffer": 0,
      "byteLength": 360,
      "byteOffset": 12648,
      "target": 34963
    },
    {
      "buffer": 0,
      "byteLength": 1224,
      "byteOffset": 13008,
      "target": 34962
    },
    {
      "buffer": 0,
      "byteLength": 1224,
      "byteOffset": 14232,
      "target": 34962
    },
    {
      "buffer": 0,
      "byteLength": 816,
      "byteOffset": 15456,
      "target": 34962
    },
    {
      "buffer": 0,
      "byteLength": 384,
      "byteOffset": 16272,
      "target": 34963
    },
    {
      "buffer": 0,
      "byteLength": 1152,
      "byteOffset": 16656,
      "target": 34962
    },
    {
      "buffer": 0,
      "byteLength": 1152,
      "byteOffset": 17808,
      "target": 34962
    },
    {
      "buffer": 0,
      "byteLength": 768,
      "byteOffset": 18960,
      "target": 34962
    },
    {
      "buffer": 0,
      "byteLength": 1152,
      "byteOffset": 19728,
      "target": 34962
    },
    {
      "buffer": 0,
      "byteLength": 1152,
      "byteOffset": 20880,
      "target": 34962
    },
    {
      "buffer": 0,
      "byteLength": 768,
      "byteOffset": 22032,
      "target": 34962
    }
  ],
  "samplers": [
    {
      "magFilter": 9729,
      "minFilter": 9987
    }
  ],
  "buffers": [
    {
      "byteLength": 22800,
      "uri": "gate_arch.bin"
    }
  ]
}